<?xml version="1.0" encoding="iso-8859-1"?>
<!-- Uploaded to: SVG Repo, www.svgrepo.com, Generator: SVG Repo Mixer Tools -->
<svg fill="#000000" height="800px" width="800px" version="1.1" id="Layer_1" xmlns="http://www.w3.org/2000/svg" xmlns:xlink="http://www.w3.org/1999/xlink" 
	 viewBox="0 0 512.001 512.001" xml:space="preserve">
<g>
	<g>
		<path d="M507.812,266.351c-7.826-29.761-25.84-62.484-50.723-92.137c-34.58-41.212-90.895-83.651-135.714-75.773
			c-42.431-32.481-88.327-32.471-130.744,0c-46.82-8.229-103.868,37.821-135.715,75.773c-24.883,29.654-42.897,62.376-50.723,92.137
			c-18.413,70.02,25.903,107.886,92.341,76.86c7.012,27.192,22.558,49.464,45.976,65.449c57.111,38.982,169.794,39.036,226.986,0
			c23.417-15.983,38.964-38.257,45.975-65.448C481.838,374.206,526.228,336.374,507.812,266.351z M92.274,309.429
			c-43.74,24.512-70.272,15.059-57.123-34.936c14.4-54.758,69.927-118.531,119.399-139.057
			C118.579,182.734,91.76,253.554,92.274,309.429z M256.003,311.079l-14.736-17.015h29.471L256.003,311.079z M351.45,382.222
			c-19.447,13.274-46.697,21.142-79.442,23.051v-63.779l45.861-52.957c8.943-10.328,1.609-26.483-12.099-26.483h-99.537
			c-13.663,0-21.072,16.122-12.099,26.483l45.862,52.957v63.779c-32.747-1.909-59.995-9.777-79.442-23.051
			c-62.17-42.433-34.203-141.159,4.677-205.533c55.967-92.662,124.393-94.619,181.54,0
			C385.831,241.356,413.498,339.872,351.45,382.222z M419.732,309.429c0.516-56.102-26.468-126.907-62.276-173.993
			c28.071,11.646,55.368,35.823,75.114,59.353c21.908,26.11,37.637,54.416,44.287,79.703
			C489.978,324.401,463.497,333.952,419.732,309.429z"/>
	</g>
</g>
<g>
	<g>
		<circle cx="198.492" cy="202.354" r="21.172"/>
	</g>
</g>
<g>
	<g>
		<circle cx="314.153" cy="202.354" r="21.172"/>
	</g>
</g>
</svg>